<svg width="48" height="48" viewBox="0 0 48 48" fill="none" xmlns="http://www.w3.org/2000/svg">
  <defs>
    <linearGradient id="beeBody" x1="0" y1="0" x2="0" y2="1">
      <stop offset="0%" stop-color="#fbbf24"/>
      <stop offset="100%" stop-color="#f59e0b"/>
    </linearGradient>
  </defs>
  <!-- Wings -->
  <ellipse cx="16" cy="14" rx="10" ry="7" fill="#bfdbfe" opacity="0.7"/>
  <ellipse cx="32" cy="14" rx="10" ry="7" fill="#bfdbfe" opacity="0.7"/>
  <ellipse cx="16" cy="14" rx="6" ry="4" fill="#dbeafe" opacity="0.5"/>
  <ellipse cx="32" cy="14" rx="6" ry="4" fill="#dbeafe" opacity="0.5"/>
  <!-- Body -->
  <ellipse cx="24" cy="28" rx="12" ry="10" fill="url(#beeBody)"/>
  <!-- Stripes -->
  <rect x="14" y="24" width="20" height="3" rx="1.5" fill="#292524"/>
  <rect x="15" y="30" width="18" height="3" rx="1.5" fill="#292524"/>
  <!-- Head -->
  <circle cx="24" cy="16" r="7" fill="#292524"/>
  <!-- Eyes -->
  <circle cx="21" cy="15" r="2.5" fill="white"/>
  <circle cx="27" cy="15" r="2.5" fill="white"/>
  <circle cx="21.5" cy="14.5" r="1.2" fill="#333"/>
  <circle cx="27.5" cy="14.5" r="1.2" fill="#333"/>
  <!-- Antennae -->
  <path d="M21 10C18 4 14 2 12 4" stroke="#292524" stroke-width="1.5" stroke-linecap="round" fill="none"/>
  <path d="M27 10C30 4 34 2 36 4" stroke="#292524" stroke-width="1.5" stroke-linecap="round" fill="none"/>
  <circle cx="12" cy="4" r="2" fill="#fbbf24"/>
  <circle cx="36" cy="4" r="2" fill="#fbbf24"/>
  <!-- Stinger -->
  <path d="M24 38L22 44L24 42L26 44Z" fill="#292524"/>
</svg>
