<svg width="48" height="48" viewBox="0 0 48 48" fill="none" xmlns="http://www.w3.org/2000/svg">
  <defs>
    <linearGradient id="snailShell" x1="0" y1="0" x2="1" y2="1">
      <stop offset="0%" stop-color="#c2956a"/>
      <stop offset="100%" stop-color="#8b6d4f"/>
    </linearGradient>
    <linearGradient id="snailBody" x1="0" y1="0" x2="1" y2="1">
      <stop offset="0%" stop-color="#f5deb3"/>
      <stop offset="100%" stop-color="#deb887"/>
    </linearGradient>
  </defs>
  <!-- Body -->
  <ellipse cx="20" cy="36" rx="16" ry="6" fill="url(#snailBody)"/>
  <!-- Shell -->
  <circle cx="28" cy="24" r="12" fill="url(#snailShell)"/>
  <path d="M28 14C22 14 18 18 18 24C18 28 20 30 24 30" stroke="#a0845e" stroke-width="2" fill="none" stroke-linecap="round"/>
  <path d="M28 18C25 18 22 20 22 24" stroke="#a0845e" stroke-width="1.5" fill="none" stroke-linecap="round"/>
  <!-- Shell spiral highlight -->
  <path d="M30 16C34 17 36 20 36 24" stroke="#d4b896" stroke-width="1" fill="none" stroke-linecap="round" opacity="0.6"/>
  <!-- Eye stalks -->
  <line x1="10" y1="34" x2="6" y2="24" stroke="#deb887" stroke-width="2" stroke-linecap="round"/>
  <line x1="14" y1="33" x2="12" y2="24" stroke="#deb887" stroke-width="2" stroke-linecap="round"/>
  <!-- Eyes -->
  <circle cx="6" cy="22" r="3" fill="#333"/>
  <circle cx="12" cy="22" r="3" fill="#333"/>
  <circle cx="5.5" cy="21" r="1" fill="white"/>
  <circle cx="11.5" cy="21" r="1" fill="white"/>
</svg>
