<svg xmlns="http://www.w3.org/2000/svg" viewBox="0 0 512 512" role="img" aria-label="Pal Plant icon">
  <defs>
    <linearGradient id="bg" x1="0" y1="0" x2="1" y2="1">
      <stop offset="0%" stop-color="#dcfce7" />
      <stop offset="100%" stop-color="#86efac" />
    </linearGradient>
  </defs>
  <rect width="512" height="512" rx="120" fill="url(#bg)"/>
  <path d="M256 402c-11 0-20-9-20-20V241c0-11 9-20 20-20s20 9 20 20v141c0 11-9 20-20 20z" fill="#166534"/>
  <path d="M236 236c-73 0-132-59-132-132 73 0 132 59 132 132z" fill="#16a34a"/>
  <path d="M276 236c73 0 132-59 132-132-73 0-132 59-132 132z" fill="#22c55e"/>
  <circle cx="256" cy="384" r="44" fill="#15803d"/>
</svg>
