<svg width="48" height="56" viewBox="0 0 48 56" fill="none" xmlns="http://www.w3.org/2000/svg">
  <defs>
    <linearGradient id="hat" x1="0" y1="0" x2="0" y2="1">
      <stop offset="0%" stop-color="#ef4444"/>
      <stop offset="100%" stop-color="#b91c1c"/>
    </linearGradient>
    <linearGradient id="coat" x1="0" y1="0" x2="0" y2="1">
      <stop offset="0%" stop-color="#3b82f6"/>
      <stop offset="100%" stop-color="#1d4ed8"/>
    </linearGradient>
  </defs>
  <!-- Hat -->
  <path d="M24 2L10 28H38L24 2Z" fill="url(#hat)"/>
  <path d="M26 4L24 2L22 4L24 8Z" fill="#fca5a5" opacity="0.3"/>
  <!-- Hat brim -->
  <ellipse cx="24" cy="28" rx="15" ry="3" fill="#991b1b"/>
  <!-- Face -->
  <circle cx="24" cy="34" r="9" fill="#fde68a"/>
  <!-- Beard -->
  <path d="M15 36C15 36 18 48 24 50C30 48 33 36 33 36" fill="white"/>
  <path d="M17 37C18 42 20 46 24 48C28 46 30 42 31 37" fill="#f5f5f4" opacity="0.5"/>
  <!-- Eyes -->
  <circle cx="20" cy="32" r="2" fill="#333"/>
  <circle cx="28" cy="32" r="2" fill="#333"/>
  <circle cx="19.5" cy="31.5" r="0.7" fill="white"/>
  <circle cx="27.5" cy="31.5" r="0.7" fill="white"/>
  <!-- Nose -->
  <circle cx="24" cy="36" r="2.5" fill="#f59e0b"/>
  <!-- Belt -->
  <rect x="16" y="44" width="16" height="3" rx="1.5" fill="#78350f"/>
  <rect x="22" y="43" width="4" height="5" rx="1" fill="#fbbf24"/>
  <!-- Coat body -->
  <path d="M14 44H34V54H14Z" fill="url(#coat)"/>
  <!-- Boots -->
  <ellipse cx="18" cy="55" rx="5" ry="2" fill="#78350f"/>
  <ellipse cx="30" cy="55" rx="5" ry="2" fill="#78350f"/>
</svg>
