<svg width="260" height="260" viewBox="0 0 260 260" fill="none" xmlns="http://www.w3.org/2000/svg">
  <defs>
    <linearGradient id="pot" x1="0" y1="0" x2="1" y2="1">
      <stop offset="0%" stop-color="#fb923c"/>
      <stop offset="100%" stop-color="#ea580c"/>
    </linearGradient>
    <linearGradient id="stem" x1="0" y1="0" x2="0" y2="1">
      <stop offset="0%" stop-color="#22c55e"/>
      <stop offset="100%" stop-color="#15803d"/>
    </linearGradient>
  </defs>
  <ellipse cx="130" cy="233" rx="72" ry="14" fill="#0f172a" fill-opacity="0.15"/>
  <path d="M72 154H188L174 224H86L72 154Z" fill="url(#pot)"/>
  <rect x="66" y="140" width="128" height="20" rx="10" fill="#fdba74"/>
  <path d="M128 140C130 124 126 106 118 88" stroke="url(#stem)" stroke-width="8" stroke-linecap="round"/>
  <path d="M132 140C132 120 138 104 150 88" stroke="url(#stem)" stroke-width="8" stroke-linecap="round"/>
  <path d="M120 88C90 92 72 70 74 42C102 42 124 58 120 88Z" fill="#4ade80"/>
  <path d="M150 88C182 92 202 70 198 42C170 42 146 58 150 88Z" fill="#22c55e"/>
  <circle cx="123" cy="178" r="4" fill="#7c2d12"/>
  <circle cx="144" cy="178" r="4" fill="#7c2d12"/>
  <path d="M118 193C126 201 140 201 148 193" stroke="#7c2d12" stroke-width="4" stroke-linecap="round"/>
</svg>
